<?xml version="1.0" standalone="no"?>
<!DOCTYPE svg PUBLIC "-//W3C//DTD SVG 20010904//EN"
 "http://www.w3.org/TR/2001/REC-SVG-20010904/DTD/svg10.dtd">
<svg version="1.0" xmlns="http://www.w3.org/2000/svg"
 width="500.000000pt" height="366.000000pt" viewBox="0 0 500.000000 366.000000"
 preserveAspectRatio="xMidYMid meet">

<g transform="translate(0.000000,366.000000) scale(0.100000,-0.100000)"
fill="#ff0100" stroke="none">
<path d="M4330 3639 c-47 -11 -152 -24 -235 -29 -221 -14 -335 -26 -700 -78
-376 -53 -322 -51 -1375 -42 -569 4 -710 -2 -1027 -50 -219 -33 -531 -109
-586 -144 -12 -8 -64 -26 -116 -41 -161 -45 -220 -86 -261 -177 -40 -91 -27
-224 51 -528 22 -85 43 -190 46 -233 5 -67 8 -77 23 -72 13 4 20 -4 29 -35 9
-29 23 -47 50 -65 46 -29 51 -39 37 -85 -15 -53 -11 -273 8 -365 9 -44 16 -88
16 -97 0 -11 -21 -28 -58 -47 -66 -33 -94 -77 -109 -166 -7 -41 -11 -50 -28
-48 -35 3 -58 -16 -52 -45 3 -15 -1 -58 -8 -97 -16 -79 -14 -319 4 -420 6 -33
11 -81 11 -108 0 -26 5 -56 12 -66 9 -15 9 -31 0 -71 -20 -88 -19 -91 72 -177
96 -91 188 -142 306 -168 49 -11 157 -19 325 -24 216 -8 260 -12 320 -31 39
-12 82 -29 97 -36 26 -13 28 -13 44 11 23 35 34 31 34 -10 0 -21 5 -35 13 -35
6 0 24 -14 39 -32 23 -28 29 -31 38 -18 5 8 10 29 10 45 0 18 8 38 20 48 22
18 26 42 10 52 -13 8 -13 42 1 50 16 11 18 5 38 -99 21 -110 31 -131 31 -63 0
26 4 47 9 47 5 0 14 14 22 31 11 29 14 30 25 14 7 -10 16 -38 20 -64 9 -62 11
-63 39 -35 30 30 44 30 105 -1 56 -28 96 -31 124 -10 26 20 42 19 93 -6 l44
-21 25 23 c21 20 27 21 34 9 5 -8 10 -18 10 -22 0 -11 84 -10 311 3 142 9 221
9 285 1 60 -7 107 -7 144 -1 30 6 361 14 735 18 862 11 854 10 1193 139 195
73 187 67 221 194 39 143 51 287 61 733 5 237 14 534 20 660 13 303 13 985 0
1155 -19 256 -49 387 -113 495 -129 221 -290 290 -537 234z m-2402 -449 c175
-559 439 -1422 466 -1525 14 -55 47 -179 72 -275 25 -96 50 -179 55 -184 5 -6
9 -6 9 -2 0 10 143 533 177 646 39 131 384 1260 424 1388 l11 32 514 0 514 0
0 -1440 0 -1440 -336 0 -337 0 7 858 c4 471 11 966 14 1099 4 133 4 239 1 235
-4 -4 -25 -63 -47 -132 -109 -340 -224 -697 -322 -1000 -60 -184 -150 -463
-200 -620 -50 -157 -103 -320 -117 -363 l-25 -77 -306 2 -305 3 -58 175 c-32
96 -100 308 -153 470 -52 162 -138 430 -191 595 -54 165 -144 446 -201 624
-57 179 -107 327 -110 330 -4 3 -4 -75 0 -174 3 -99 9 -595 12 -1103 l7 -922
-337 0 -336 0 0 1440 0 1440 537 -2 537 -3 24 -75z"/>
</g>
</svg>
